<svg xmlns="http://www.w3.org/2000/svg" xmlns:xlink="http://www.w3.org/1999/xlink" width="67.908" height="67.908" viewBox="0 0 67.908 67.908">
  <defs>
    <filter id="Oval" x="0" y="0" width="67.908" height="67.908" filterUnits="userSpaceOnUse">
      <feOffset dy="3" input="SourceAlpha"/>
      <feGaussianBlur stdDeviation="3" result="blur"/>
      <feFlood flood-opacity="0.161"/>
      <feComposite operator="in" in2="blur"/>
      <feComposite in="SourceGraphic"/>
    </filter>
  </defs>
  <g id="Twitter" transform="translate(9 6)">
    <g transform="matrix(1, 0, 0, 1, -9, -6)" filter="url(#Oval)">
      <circle id="Oval-2" data-name="Oval" cx="24.954" cy="24.954" r="24.954" transform="translate(9 6)" fill="#2aa3ef"/>
    </g>
    <path id="Twitter-2" data-name="Twitter" d="M20.475,1.969a8.426,8.426,0,0,1-2.413.662A4.213,4.213,0,0,0,19.909.308a8.4,8.4,0,0,1-2.668,1.018A4.2,4.2,0,0,0,9.974,4.2a4.247,4.247,0,0,0,.11.958A11.925,11.925,0,0,1,1.426.769a4.2,4.2,0,0,0,1.3,5.607,4.166,4.166,0,0,1-1.9-.525V5.9a4.2,4.2,0,0,0,3.369,4.118,4.194,4.194,0,0,1-1.107.147,4.132,4.132,0,0,1-.79-.076A4.207,4.207,0,0,0,6.22,13.01,8.439,8.439,0,0,1,1,14.807a8.467,8.467,0,0,1-1-.058,11.887,11.887,0,0,0,6.44,1.887A11.869,11.869,0,0,0,18.391,4.687c0-.183,0-.362-.012-.543a8.538,8.538,0,0,0,2.1-2.174Z" transform="translate(14.716 16.636)" fill="#fff"/>
  </g>
</svg>
